%TF.GenerationSoftware,KiCad,Pcbnew,(5.1.10)-1*%
%TF.CreationDate,2021-06-13T21:16:24+02:00*%
%TF.ProjectId,esp_prog_uart_autoreset,6573705f-7072-46f6-975f-756172745f61,rev?*%
%TF.SameCoordinates,Original*%
%TF.FileFunction,Copper,L1,Top*%
%TF.FilePolarity,Positive*%
%FSLAX46Y46*%
G04 Gerber Fmt 4.6, Leading zero omitted, Abs format (unit mm)*
G04 Created by KiCad (PCBNEW (5.1.10)-1) date 2021-06-13 21:16:24*
%MOMM*%
%LPD*%
G01*
G04 APERTURE LIST*
%TA.AperFunction,SMDPad,CuDef*%
%ADD10R,0.900000X0.800000*%
%TD*%
%TA.AperFunction,ComponentPad*%
%ADD11R,1.700000X1.700000*%
%TD*%
%TA.AperFunction,ComponentPad*%
%ADD12O,1.700000X1.700000*%
%TD*%
%TA.AperFunction,Conductor*%
%ADD13C,0.500000*%
%TD*%
%TA.AperFunction,Conductor*%
%ADD14C,0.254000*%
%TD*%
%TA.AperFunction,Conductor*%
%ADD15C,0.100000*%
%TD*%
G04 APERTURE END LIST*
%TO.P,R2,1*%
%TO.N,Net-(Q2-Pad1)*%
%TA.AperFunction,SMDPad,CuDef*%
G36*
G01*
X143900002Y-101425000D02*
X142999998Y-101425000D01*
G75*
G02*
X142750000Y-101175002I0J249998D01*
G01*
X142750000Y-100649998D01*
G75*
G02*
X142999998Y-100400000I249998J0D01*
G01*
X143900002Y-100400000D01*
G75*
G02*
X144150000Y-100649998I0J-249998D01*
G01*
X144150000Y-101175002D01*
G75*
G02*
X143900002Y-101425000I-249998J0D01*
G01*
G37*
%TD.AperFunction*%
%TO.P,R2,2*%
%TO.N,UART_RTS*%
%TA.AperFunction,SMDPad,CuDef*%
G36*
G01*
X143900002Y-99600000D02*
X142999998Y-99600000D01*
G75*
G02*
X142750000Y-99350002I0J249998D01*
G01*
X142750000Y-98824998D01*
G75*
G02*
X142999998Y-98575000I249998J0D01*
G01*
X143900002Y-98575000D01*
G75*
G02*
X144150000Y-98824998I0J-249998D01*
G01*
X144150000Y-99350002D01*
G75*
G02*
X143900002Y-99600000I-249998J0D01*
G01*
G37*
%TD.AperFunction*%
%TD*%
%TO.P,R1,1*%
%TO.N,Net-(Q1-Pad1)*%
%TA.AperFunction,SMDPad,CuDef*%
G36*
G01*
X142999998Y-103575000D02*
X143900002Y-103575000D01*
G75*
G02*
X144150000Y-103824998I0J-249998D01*
G01*
X144150000Y-104350002D01*
G75*
G02*
X143900002Y-104600000I-249998J0D01*
G01*
X142999998Y-104600000D01*
G75*
G02*
X142750000Y-104350002I0J249998D01*
G01*
X142750000Y-103824998D01*
G75*
G02*
X142999998Y-103575000I249998J0D01*
G01*
G37*
%TD.AperFunction*%
%TO.P,R1,2*%
%TO.N,UART_DTR*%
%TA.AperFunction,SMDPad,CuDef*%
G36*
G01*
X142999998Y-105400000D02*
X143900002Y-105400000D01*
G75*
G02*
X144150000Y-105649998I0J-249998D01*
G01*
X144150000Y-106175002D01*
G75*
G02*
X143900002Y-106425000I-249998J0D01*
G01*
X142999998Y-106425000D01*
G75*
G02*
X142750000Y-106175002I0J249998D01*
G01*
X142750000Y-105649998D01*
G75*
G02*
X142999998Y-105400000I249998J0D01*
G01*
G37*
%TD.AperFunction*%
%TD*%
D10*
%TO.P,Q2,3*%
%TO.N,ESP_GPIO0*%
X148950000Y-105000000D03*
%TO.P,Q2,2*%
%TO.N,UART_DTR*%
X146950000Y-105950000D03*
%TO.P,Q2,1*%
%TO.N,Net-(Q2-Pad1)*%
X146950000Y-104050000D03*
%TD*%
%TO.P,Q1,1*%
%TO.N,Net-(Q1-Pad1)*%
X146950000Y-99050000D03*
%TO.P,Q1,2*%
%TO.N,UART_RTS*%
X146950000Y-100950000D03*
%TO.P,Q1,3*%
%TO.N,ESP_RESET*%
X148950000Y-100000000D03*
%TD*%
D11*
%TO.P,J2,1*%
%TO.N,POWER*%
X157480000Y-91440000D03*
D12*
%TO.P,J2,2*%
%TO.N,3.3V*%
X157480000Y-93980000D03*
%TO.P,J2,3*%
%TO.N,UART_TXD_2_ESP_RXD*%
X157480000Y-96520000D03*
%TO.P,J2,4*%
%TO.N,UART_RXD_2_ESP_TXD*%
X157480000Y-99060000D03*
%TO.P,J2,5*%
%TO.N,ESP_RESET*%
X157480000Y-101600000D03*
%TO.P,J2,6*%
%TO.N,ESP_GPIO0*%
X157480000Y-104140000D03*
%TO.P,J2,7*%
%TO.N,GND*%
X157480000Y-106680000D03*
%TD*%
D11*
%TO.P,J1,1*%
%TO.N,GND*%
X134620000Y-106680000D03*
D12*
%TO.P,J1,2*%
%TO.N,UART_DTR*%
X134620000Y-104140000D03*
%TO.P,J1,3*%
%TO.N,UART_RTS*%
X134620000Y-101600000D03*
%TO.P,J1,4*%
%TO.N,UART_RXD_2_ESP_TXD*%
X134620000Y-99060000D03*
%TO.P,J1,5*%
%TO.N,UART_TXD_2_ESP_RXD*%
X134620000Y-96520000D03*
%TO.P,J1,6*%
%TO.N,3.3V*%
X134620000Y-93980000D03*
%TO.P,J1,7*%
%TO.N,POWER*%
X134620000Y-91440000D03*
%TD*%
D13*
%TO.N,3.3V*%
X134620000Y-93980000D02*
X157480000Y-93980000D01*
%TO.N,UART_TXD_2_ESP_RXD*%
X156560000Y-95600000D02*
X157480000Y-96520000D01*
X135540000Y-95600000D02*
X156560000Y-95600000D01*
X134620000Y-96520000D02*
X135540000Y-95600000D01*
%TO.N,UART_RXD_2_ESP_TXD*%
X134620000Y-99060000D02*
X136525000Y-97155000D01*
X155575000Y-97155000D02*
X157480000Y-99060000D01*
X136525000Y-97155000D02*
X155575000Y-97155000D01*
%TO.N,UART_DTR*%
X146912500Y-105912500D02*
X146950000Y-105950000D01*
X143450000Y-105912500D02*
X146912500Y-105912500D01*
X134620000Y-104140000D02*
X140335000Y-104140000D01*
X142107500Y-105912500D02*
X143450000Y-105912500D01*
X140335000Y-104140000D02*
X142107500Y-105912500D01*
%TO.N,UART_RTS*%
X143450000Y-99087500D02*
X144037500Y-99087500D01*
X145900000Y-100950000D02*
X146950000Y-100950000D01*
X144037500Y-99087500D02*
X145900000Y-100950000D01*
X134620000Y-101600000D02*
X139700000Y-101600000D01*
X142212500Y-99087500D02*
X143450000Y-99087500D01*
X139700000Y-101600000D02*
X142212500Y-99087500D01*
%TO.N,ESP_GPIO0*%
X157480000Y-104140000D02*
X150495000Y-104140000D01*
X149635000Y-105000000D02*
X148950000Y-105000000D01*
X150495000Y-104140000D02*
X149635000Y-105000000D01*
%TO.N,ESP_RESET*%
X157480000Y-101600000D02*
X151130000Y-101600000D01*
X149530000Y-100000000D02*
X148950000Y-100000000D01*
X151130000Y-101600000D02*
X149530000Y-100000000D01*
%TO.N,Net-(Q1-Pad1)*%
X143450000Y-104087500D02*
X144537500Y-104087500D01*
X144537500Y-104087500D02*
X145450000Y-105000000D01*
X147660002Y-105000000D02*
X147950000Y-104710002D01*
X145450000Y-105000000D02*
X147660002Y-105000000D01*
X147950000Y-100050000D02*
X146950000Y-99050000D01*
X147950000Y-104710002D02*
X147950000Y-100050000D01*
%TO.N,Net-(Q2-Pad1)*%
X143812500Y-100912500D02*
X146950000Y-104050000D01*
X143450000Y-100912500D02*
X143812500Y-100912500D01*
%TO.N,POWER*%
X134620000Y-91440000D02*
X157480000Y-91440000D01*
%TD*%
D14*
%TO.N,GND*%
X159114545Y-87058909D02*
X159465208Y-87164780D01*
X159788625Y-87336744D01*
X160072484Y-87568254D01*
X160305965Y-87850486D01*
X160480183Y-88172695D01*
X160588502Y-88522614D01*
X160630001Y-88917452D01*
X160630000Y-109187721D01*
X160591091Y-109584545D01*
X160485220Y-109935206D01*
X160313257Y-110258623D01*
X160081748Y-110542482D01*
X159799514Y-110775965D01*
X159477304Y-110950184D01*
X159127385Y-111058502D01*
X158732557Y-111100000D01*
X133382279Y-111100000D01*
X132985455Y-111061091D01*
X132634794Y-110955220D01*
X132311377Y-110783257D01*
X132027518Y-110551748D01*
X131794035Y-110269514D01*
X131619816Y-109947304D01*
X131511498Y-109597385D01*
X131470000Y-109202557D01*
X131470000Y-107530000D01*
X133131928Y-107530000D01*
X133144188Y-107654482D01*
X133180498Y-107774180D01*
X133239463Y-107884494D01*
X133318815Y-107981185D01*
X133415506Y-108060537D01*
X133525820Y-108119502D01*
X133645518Y-108155812D01*
X133770000Y-108168072D01*
X134334250Y-108165000D01*
X134493000Y-108006250D01*
X134493000Y-106807000D01*
X134747000Y-106807000D01*
X134747000Y-108006250D01*
X134905750Y-108165000D01*
X135470000Y-108168072D01*
X135594482Y-108155812D01*
X135714180Y-108119502D01*
X135824494Y-108060537D01*
X135921185Y-107981185D01*
X136000537Y-107884494D01*
X136059502Y-107774180D01*
X136095812Y-107654482D01*
X136108072Y-107530000D01*
X136105000Y-106965750D01*
X135946250Y-106807000D01*
X134747000Y-106807000D01*
X134493000Y-106807000D01*
X133293750Y-106807000D01*
X133135000Y-106965750D01*
X133131928Y-107530000D01*
X131470000Y-107530000D01*
X131470000Y-105830000D01*
X133131928Y-105830000D01*
X133135000Y-106394250D01*
X133293750Y-106553000D01*
X134493000Y-106553000D01*
X134493000Y-106533000D01*
X134747000Y-106533000D01*
X134747000Y-106553000D01*
X135946250Y-106553000D01*
X136105000Y-106394250D01*
X136108072Y-105830000D01*
X136095812Y-105705518D01*
X136059502Y-105585820D01*
X136000537Y-105475506D01*
X135921185Y-105378815D01*
X135824494Y-105299463D01*
X135714180Y-105240498D01*
X135641620Y-105218487D01*
X135773475Y-105086632D01*
X135814656Y-105025000D01*
X139968422Y-105025000D01*
X141450970Y-106507549D01*
X141478683Y-106541317D01*
X141512451Y-106569030D01*
X141512453Y-106569032D01*
X141613441Y-106651911D01*
X141767186Y-106734089D01*
X141934010Y-106784695D01*
X142064023Y-106797500D01*
X142064031Y-106797500D01*
X142107500Y-106801781D01*
X142150969Y-106797500D01*
X142367555Y-106797500D01*
X142372038Y-106802962D01*
X142506613Y-106913405D01*
X142660148Y-106995472D01*
X142826744Y-107046008D01*
X142999998Y-107063072D01*
X143900002Y-107063072D01*
X144073256Y-107046008D01*
X144103314Y-107036890D01*
X156038524Y-107036890D01*
X156083175Y-107184099D01*
X156208359Y-107446920D01*
X156382412Y-107680269D01*
X156598645Y-107875178D01*
X156848748Y-108024157D01*
X157123109Y-108121481D01*
X157353000Y-108000814D01*
X157353000Y-106807000D01*
X157607000Y-106807000D01*
X157607000Y-108000814D01*
X157836891Y-108121481D01*
X158111252Y-108024157D01*
X158361355Y-107875178D01*
X158577588Y-107680269D01*
X158751641Y-107446920D01*
X158876825Y-107184099D01*
X158921476Y-107036890D01*
X158800155Y-106807000D01*
X157607000Y-106807000D01*
X157353000Y-106807000D01*
X156159845Y-106807000D01*
X156038524Y-107036890D01*
X144103314Y-107036890D01*
X144239852Y-106995472D01*
X144393387Y-106913405D01*
X144527962Y-106802962D01*
X144532445Y-106797500D01*
X146045791Y-106797500D01*
X146048815Y-106801185D01*
X146145506Y-106880537D01*
X146255820Y-106939502D01*
X146375518Y-106975812D01*
X146500000Y-106988072D01*
X147400000Y-106988072D01*
X147524482Y-106975812D01*
X147644180Y-106939502D01*
X147754494Y-106880537D01*
X147851185Y-106801185D01*
X147930537Y-106704494D01*
X147989502Y-106594180D01*
X148025812Y-106474482D01*
X148038072Y-106350000D01*
X148038072Y-105838095D01*
X148048815Y-105851185D01*
X148145506Y-105930537D01*
X148255820Y-105989502D01*
X148375518Y-106025812D01*
X148500000Y-106038072D01*
X149400000Y-106038072D01*
X149524482Y-106025812D01*
X149644180Y-105989502D01*
X149754494Y-105930537D01*
X149835608Y-105863969D01*
X149975313Y-105821589D01*
X150129059Y-105739411D01*
X150263817Y-105628817D01*
X150291534Y-105595044D01*
X150861579Y-105025000D01*
X156285344Y-105025000D01*
X156326525Y-105086632D01*
X156533368Y-105293475D01*
X156715534Y-105415195D01*
X156598645Y-105484822D01*
X156382412Y-105679731D01*
X156208359Y-105913080D01*
X156083175Y-106175901D01*
X156038524Y-106323110D01*
X156159845Y-106553000D01*
X157353000Y-106553000D01*
X157353000Y-106533000D01*
X157607000Y-106533000D01*
X157607000Y-106553000D01*
X158800155Y-106553000D01*
X158921476Y-106323110D01*
X158876825Y-106175901D01*
X158751641Y-105913080D01*
X158577588Y-105679731D01*
X158361355Y-105484822D01*
X158244466Y-105415195D01*
X158426632Y-105293475D01*
X158633475Y-105086632D01*
X158795990Y-104843411D01*
X158907932Y-104573158D01*
X158965000Y-104286260D01*
X158965000Y-103993740D01*
X158907932Y-103706842D01*
X158795990Y-103436589D01*
X158633475Y-103193368D01*
X158426632Y-102986525D01*
X158252240Y-102870000D01*
X158426632Y-102753475D01*
X158633475Y-102546632D01*
X158795990Y-102303411D01*
X158907932Y-102033158D01*
X158965000Y-101746260D01*
X158965000Y-101453740D01*
X158907932Y-101166842D01*
X158795990Y-100896589D01*
X158633475Y-100653368D01*
X158426632Y-100446525D01*
X158252240Y-100330000D01*
X158426632Y-100213475D01*
X158633475Y-100006632D01*
X158795990Y-99763411D01*
X158907932Y-99493158D01*
X158965000Y-99206260D01*
X158965000Y-98913740D01*
X158907932Y-98626842D01*
X158795990Y-98356589D01*
X158633475Y-98113368D01*
X158426632Y-97906525D01*
X158252240Y-97790000D01*
X158426632Y-97673475D01*
X158633475Y-97466632D01*
X158795990Y-97223411D01*
X158907932Y-96953158D01*
X158965000Y-96666260D01*
X158965000Y-96373740D01*
X158907932Y-96086842D01*
X158795990Y-95816589D01*
X158633475Y-95573368D01*
X158426632Y-95366525D01*
X158252240Y-95250000D01*
X158426632Y-95133475D01*
X158633475Y-94926632D01*
X158795990Y-94683411D01*
X158907932Y-94413158D01*
X158965000Y-94126260D01*
X158965000Y-93833740D01*
X158907932Y-93546842D01*
X158795990Y-93276589D01*
X158633475Y-93033368D01*
X158501620Y-92901513D01*
X158574180Y-92879502D01*
X158684494Y-92820537D01*
X158781185Y-92741185D01*
X158860537Y-92644494D01*
X158919502Y-92534180D01*
X158955812Y-92414482D01*
X158968072Y-92290000D01*
X158968072Y-90590000D01*
X158955812Y-90465518D01*
X158919502Y-90345820D01*
X158860537Y-90235506D01*
X158781185Y-90138815D01*
X158684494Y-90059463D01*
X158574180Y-90000498D01*
X158454482Y-89964188D01*
X158330000Y-89951928D01*
X156630000Y-89951928D01*
X156505518Y-89964188D01*
X156385820Y-90000498D01*
X156275506Y-90059463D01*
X156178815Y-90138815D01*
X156099463Y-90235506D01*
X156040498Y-90345820D01*
X156004188Y-90465518D01*
X155995375Y-90555000D01*
X135814656Y-90555000D01*
X135773475Y-90493368D01*
X135566632Y-90286525D01*
X135323411Y-90124010D01*
X135053158Y-90012068D01*
X134766260Y-89955000D01*
X134473740Y-89955000D01*
X134186842Y-90012068D01*
X133916589Y-90124010D01*
X133673368Y-90286525D01*
X133466525Y-90493368D01*
X133304010Y-90736589D01*
X133192068Y-91006842D01*
X133135000Y-91293740D01*
X133135000Y-91586260D01*
X133192068Y-91873158D01*
X133304010Y-92143411D01*
X133466525Y-92386632D01*
X133673368Y-92593475D01*
X133847760Y-92710000D01*
X133673368Y-92826525D01*
X133466525Y-93033368D01*
X133304010Y-93276589D01*
X133192068Y-93546842D01*
X133135000Y-93833740D01*
X133135000Y-94126260D01*
X133192068Y-94413158D01*
X133304010Y-94683411D01*
X133466525Y-94926632D01*
X133673368Y-95133475D01*
X133847760Y-95250000D01*
X133673368Y-95366525D01*
X133466525Y-95573368D01*
X133304010Y-95816589D01*
X133192068Y-96086842D01*
X133135000Y-96373740D01*
X133135000Y-96666260D01*
X133192068Y-96953158D01*
X133304010Y-97223411D01*
X133466525Y-97466632D01*
X133673368Y-97673475D01*
X133847760Y-97790000D01*
X133673368Y-97906525D01*
X133466525Y-98113368D01*
X133304010Y-98356589D01*
X133192068Y-98626842D01*
X133135000Y-98913740D01*
X133135000Y-99206260D01*
X133192068Y-99493158D01*
X133304010Y-99763411D01*
X133466525Y-100006632D01*
X133673368Y-100213475D01*
X133847760Y-100330000D01*
X133673368Y-100446525D01*
X133466525Y-100653368D01*
X133304010Y-100896589D01*
X133192068Y-101166842D01*
X133135000Y-101453740D01*
X133135000Y-101746260D01*
X133192068Y-102033158D01*
X133304010Y-102303411D01*
X133466525Y-102546632D01*
X133673368Y-102753475D01*
X133847760Y-102870000D01*
X133673368Y-102986525D01*
X133466525Y-103193368D01*
X133304010Y-103436589D01*
X133192068Y-103706842D01*
X133135000Y-103993740D01*
X133135000Y-104286260D01*
X133192068Y-104573158D01*
X133304010Y-104843411D01*
X133466525Y-105086632D01*
X133598380Y-105218487D01*
X133525820Y-105240498D01*
X133415506Y-105299463D01*
X133318815Y-105378815D01*
X133239463Y-105475506D01*
X133180498Y-105585820D01*
X133144188Y-105705518D01*
X133131928Y-105830000D01*
X131470000Y-105830000D01*
X131470000Y-88932279D01*
X131508909Y-88535455D01*
X131614780Y-88184792D01*
X131786744Y-87861375D01*
X132018254Y-87577516D01*
X132300486Y-87344035D01*
X132622695Y-87169817D01*
X132972614Y-87061498D01*
X133367443Y-87020000D01*
X158717721Y-87020000D01*
X159114545Y-87058909D01*
%TA.AperFunction,Conductor*%
D15*
G36*
X159114545Y-87058909D02*
G01*
X159465208Y-87164780D01*
X159788625Y-87336744D01*
X160072484Y-87568254D01*
X160305965Y-87850486D01*
X160480183Y-88172695D01*
X160588502Y-88522614D01*
X160630001Y-88917452D01*
X160630000Y-109187721D01*
X160591091Y-109584545D01*
X160485220Y-109935206D01*
X160313257Y-110258623D01*
X160081748Y-110542482D01*
X159799514Y-110775965D01*
X159477304Y-110950184D01*
X159127385Y-111058502D01*
X158732557Y-111100000D01*
X133382279Y-111100000D01*
X132985455Y-111061091D01*
X132634794Y-110955220D01*
X132311377Y-110783257D01*
X132027518Y-110551748D01*
X131794035Y-110269514D01*
X131619816Y-109947304D01*
X131511498Y-109597385D01*
X131470000Y-109202557D01*
X131470000Y-107530000D01*
X133131928Y-107530000D01*
X133144188Y-107654482D01*
X133180498Y-107774180D01*
X133239463Y-107884494D01*
X133318815Y-107981185D01*
X133415506Y-108060537D01*
X133525820Y-108119502D01*
X133645518Y-108155812D01*
X133770000Y-108168072D01*
X134334250Y-108165000D01*
X134493000Y-108006250D01*
X134493000Y-106807000D01*
X134747000Y-106807000D01*
X134747000Y-108006250D01*
X134905750Y-108165000D01*
X135470000Y-108168072D01*
X135594482Y-108155812D01*
X135714180Y-108119502D01*
X135824494Y-108060537D01*
X135921185Y-107981185D01*
X136000537Y-107884494D01*
X136059502Y-107774180D01*
X136095812Y-107654482D01*
X136108072Y-107530000D01*
X136105000Y-106965750D01*
X135946250Y-106807000D01*
X134747000Y-106807000D01*
X134493000Y-106807000D01*
X133293750Y-106807000D01*
X133135000Y-106965750D01*
X133131928Y-107530000D01*
X131470000Y-107530000D01*
X131470000Y-105830000D01*
X133131928Y-105830000D01*
X133135000Y-106394250D01*
X133293750Y-106553000D01*
X134493000Y-106553000D01*
X134493000Y-106533000D01*
X134747000Y-106533000D01*
X134747000Y-106553000D01*
X135946250Y-106553000D01*
X136105000Y-106394250D01*
X136108072Y-105830000D01*
X136095812Y-105705518D01*
X136059502Y-105585820D01*
X136000537Y-105475506D01*
X135921185Y-105378815D01*
X135824494Y-105299463D01*
X135714180Y-105240498D01*
X135641620Y-105218487D01*
X135773475Y-105086632D01*
X135814656Y-105025000D01*
X139968422Y-105025000D01*
X141450970Y-106507549D01*
X141478683Y-106541317D01*
X141512451Y-106569030D01*
X141512453Y-106569032D01*
X141613441Y-106651911D01*
X141767186Y-106734089D01*
X141934010Y-106784695D01*
X142064023Y-106797500D01*
X142064031Y-106797500D01*
X142107500Y-106801781D01*
X142150969Y-106797500D01*
X142367555Y-106797500D01*
X142372038Y-106802962D01*
X142506613Y-106913405D01*
X142660148Y-106995472D01*
X142826744Y-107046008D01*
X142999998Y-107063072D01*
X143900002Y-107063072D01*
X144073256Y-107046008D01*
X144103314Y-107036890D01*
X156038524Y-107036890D01*
X156083175Y-107184099D01*
X156208359Y-107446920D01*
X156382412Y-107680269D01*
X156598645Y-107875178D01*
X156848748Y-108024157D01*
X157123109Y-108121481D01*
X157353000Y-108000814D01*
X157353000Y-106807000D01*
X157607000Y-106807000D01*
X157607000Y-108000814D01*
X157836891Y-108121481D01*
X158111252Y-108024157D01*
X158361355Y-107875178D01*
X158577588Y-107680269D01*
X158751641Y-107446920D01*
X158876825Y-107184099D01*
X158921476Y-107036890D01*
X158800155Y-106807000D01*
X157607000Y-106807000D01*
X157353000Y-106807000D01*
X156159845Y-106807000D01*
X156038524Y-107036890D01*
X144103314Y-107036890D01*
X144239852Y-106995472D01*
X144393387Y-106913405D01*
X144527962Y-106802962D01*
X144532445Y-106797500D01*
X146045791Y-106797500D01*
X146048815Y-106801185D01*
X146145506Y-106880537D01*
X146255820Y-106939502D01*
X146375518Y-106975812D01*
X146500000Y-106988072D01*
X147400000Y-106988072D01*
X147524482Y-106975812D01*
X147644180Y-106939502D01*
X147754494Y-106880537D01*
X147851185Y-106801185D01*
X147930537Y-106704494D01*
X147989502Y-106594180D01*
X148025812Y-106474482D01*
X148038072Y-106350000D01*
X148038072Y-105838095D01*
X148048815Y-105851185D01*
X148145506Y-105930537D01*
X148255820Y-105989502D01*
X148375518Y-106025812D01*
X148500000Y-106038072D01*
X149400000Y-106038072D01*
X149524482Y-106025812D01*
X149644180Y-105989502D01*
X149754494Y-105930537D01*
X149835608Y-105863969D01*
X149975313Y-105821589D01*
X150129059Y-105739411D01*
X150263817Y-105628817D01*
X150291534Y-105595044D01*
X150861579Y-105025000D01*
X156285344Y-105025000D01*
X156326525Y-105086632D01*
X156533368Y-105293475D01*
X156715534Y-105415195D01*
X156598645Y-105484822D01*
X156382412Y-105679731D01*
X156208359Y-105913080D01*
X156083175Y-106175901D01*
X156038524Y-106323110D01*
X156159845Y-106553000D01*
X157353000Y-106553000D01*
X157353000Y-106533000D01*
X157607000Y-106533000D01*
X157607000Y-106553000D01*
X158800155Y-106553000D01*
X158921476Y-106323110D01*
X158876825Y-106175901D01*
X158751641Y-105913080D01*
X158577588Y-105679731D01*
X158361355Y-105484822D01*
X158244466Y-105415195D01*
X158426632Y-105293475D01*
X158633475Y-105086632D01*
X158795990Y-104843411D01*
X158907932Y-104573158D01*
X158965000Y-104286260D01*
X158965000Y-103993740D01*
X158907932Y-103706842D01*
X158795990Y-103436589D01*
X158633475Y-103193368D01*
X158426632Y-102986525D01*
X158252240Y-102870000D01*
X158426632Y-102753475D01*
X158633475Y-102546632D01*
X158795990Y-102303411D01*
X158907932Y-102033158D01*
X158965000Y-101746260D01*
X158965000Y-101453740D01*
X158907932Y-101166842D01*
X158795990Y-100896589D01*
X158633475Y-100653368D01*
X158426632Y-100446525D01*
X158252240Y-100330000D01*
X158426632Y-100213475D01*
X158633475Y-100006632D01*
X158795990Y-99763411D01*
X158907932Y-99493158D01*
X158965000Y-99206260D01*
X158965000Y-98913740D01*
X158907932Y-98626842D01*
X158795990Y-98356589D01*
X158633475Y-98113368D01*
X158426632Y-97906525D01*
X158252240Y-97790000D01*
X158426632Y-97673475D01*
X158633475Y-97466632D01*
X158795990Y-97223411D01*
X158907932Y-96953158D01*
X158965000Y-96666260D01*
X158965000Y-96373740D01*
X158907932Y-96086842D01*
X158795990Y-95816589D01*
X158633475Y-95573368D01*
X158426632Y-95366525D01*
X158252240Y-95250000D01*
X158426632Y-95133475D01*
X158633475Y-94926632D01*
X158795990Y-94683411D01*
X158907932Y-94413158D01*
X158965000Y-94126260D01*
X158965000Y-93833740D01*
X158907932Y-93546842D01*
X158795990Y-93276589D01*
X158633475Y-93033368D01*
X158501620Y-92901513D01*
X158574180Y-92879502D01*
X158684494Y-92820537D01*
X158781185Y-92741185D01*
X158860537Y-92644494D01*
X158919502Y-92534180D01*
X158955812Y-92414482D01*
X158968072Y-92290000D01*
X158968072Y-90590000D01*
X158955812Y-90465518D01*
X158919502Y-90345820D01*
X158860537Y-90235506D01*
X158781185Y-90138815D01*
X158684494Y-90059463D01*
X158574180Y-90000498D01*
X158454482Y-89964188D01*
X158330000Y-89951928D01*
X156630000Y-89951928D01*
X156505518Y-89964188D01*
X156385820Y-90000498D01*
X156275506Y-90059463D01*
X156178815Y-90138815D01*
X156099463Y-90235506D01*
X156040498Y-90345820D01*
X156004188Y-90465518D01*
X155995375Y-90555000D01*
X135814656Y-90555000D01*
X135773475Y-90493368D01*
X135566632Y-90286525D01*
X135323411Y-90124010D01*
X135053158Y-90012068D01*
X134766260Y-89955000D01*
X134473740Y-89955000D01*
X134186842Y-90012068D01*
X133916589Y-90124010D01*
X133673368Y-90286525D01*
X133466525Y-90493368D01*
X133304010Y-90736589D01*
X133192068Y-91006842D01*
X133135000Y-91293740D01*
X133135000Y-91586260D01*
X133192068Y-91873158D01*
X133304010Y-92143411D01*
X133466525Y-92386632D01*
X133673368Y-92593475D01*
X133847760Y-92710000D01*
X133673368Y-92826525D01*
X133466525Y-93033368D01*
X133304010Y-93276589D01*
X133192068Y-93546842D01*
X133135000Y-93833740D01*
X133135000Y-94126260D01*
X133192068Y-94413158D01*
X133304010Y-94683411D01*
X133466525Y-94926632D01*
X133673368Y-95133475D01*
X133847760Y-95250000D01*
X133673368Y-95366525D01*
X133466525Y-95573368D01*
X133304010Y-95816589D01*
X133192068Y-96086842D01*
X133135000Y-96373740D01*
X133135000Y-96666260D01*
X133192068Y-96953158D01*
X133304010Y-97223411D01*
X133466525Y-97466632D01*
X133673368Y-97673475D01*
X133847760Y-97790000D01*
X133673368Y-97906525D01*
X133466525Y-98113368D01*
X133304010Y-98356589D01*
X133192068Y-98626842D01*
X133135000Y-98913740D01*
X133135000Y-99206260D01*
X133192068Y-99493158D01*
X133304010Y-99763411D01*
X133466525Y-100006632D01*
X133673368Y-100213475D01*
X133847760Y-100330000D01*
X133673368Y-100446525D01*
X133466525Y-100653368D01*
X133304010Y-100896589D01*
X133192068Y-101166842D01*
X133135000Y-101453740D01*
X133135000Y-101746260D01*
X133192068Y-102033158D01*
X133304010Y-102303411D01*
X133466525Y-102546632D01*
X133673368Y-102753475D01*
X133847760Y-102870000D01*
X133673368Y-102986525D01*
X133466525Y-103193368D01*
X133304010Y-103436589D01*
X133192068Y-103706842D01*
X133135000Y-103993740D01*
X133135000Y-104286260D01*
X133192068Y-104573158D01*
X133304010Y-104843411D01*
X133466525Y-105086632D01*
X133598380Y-105218487D01*
X133525820Y-105240498D01*
X133415506Y-105299463D01*
X133318815Y-105378815D01*
X133239463Y-105475506D01*
X133180498Y-105585820D01*
X133144188Y-105705518D01*
X133131928Y-105830000D01*
X131470000Y-105830000D01*
X131470000Y-88932279D01*
X131508909Y-88535455D01*
X131614780Y-88184792D01*
X131786744Y-87861375D01*
X132018254Y-87577516D01*
X132300486Y-87344035D01*
X132622695Y-87169817D01*
X132972614Y-87061498D01*
X133367443Y-87020000D01*
X158717721Y-87020000D01*
X159114545Y-87058909D01*
G37*
%TD.AperFunction*%
%TD*%
M02*
