%TF.GenerationSoftware,KiCad,Pcbnew,(5.1.10)-1*%
%TF.CreationDate,2021-06-13T21:16:24+02:00*%
%TF.ProjectId,esp_prog_uart_autoreset,6573705f-7072-46f6-975f-756172745f61,rev?*%
%TF.SameCoordinates,Original*%
%TF.FileFunction,Paste,Top*%
%TF.FilePolarity,Positive*%
%FSLAX46Y46*%
G04 Gerber Fmt 4.6, Leading zero omitted, Abs format (unit mm)*
G04 Created by KiCad (PCBNEW (5.1.10)-1) date 2021-06-13 21:16:24*
%MOMM*%
%LPD*%
G01*
G04 APERTURE LIST*
%ADD10R,0.900000X0.800000*%
G04 APERTURE END LIST*
%TO.C,R2*%
G36*
G01*
X143900002Y-101425000D02*
X142999998Y-101425000D01*
G75*
G02*
X142750000Y-101175002I0J249998D01*
G01*
X142750000Y-100649998D01*
G75*
G02*
X142999998Y-100400000I249998J0D01*
G01*
X143900002Y-100400000D01*
G75*
G02*
X144150000Y-100649998I0J-249998D01*
G01*
X144150000Y-101175002D01*
G75*
G02*
X143900002Y-101425000I-249998J0D01*
G01*
G37*
G36*
G01*
X143900002Y-99600000D02*
X142999998Y-99600000D01*
G75*
G02*
X142750000Y-99350002I0J249998D01*
G01*
X142750000Y-98824998D01*
G75*
G02*
X142999998Y-98575000I249998J0D01*
G01*
X143900002Y-98575000D01*
G75*
G02*
X144150000Y-98824998I0J-249998D01*
G01*
X144150000Y-99350002D01*
G75*
G02*
X143900002Y-99600000I-249998J0D01*
G01*
G37*
%TD*%
%TO.C,R1*%
G36*
G01*
X142999998Y-103575000D02*
X143900002Y-103575000D01*
G75*
G02*
X144150000Y-103824998I0J-249998D01*
G01*
X144150000Y-104350002D01*
G75*
G02*
X143900002Y-104600000I-249998J0D01*
G01*
X142999998Y-104600000D01*
G75*
G02*
X142750000Y-104350002I0J249998D01*
G01*
X142750000Y-103824998D01*
G75*
G02*
X142999998Y-103575000I249998J0D01*
G01*
G37*
G36*
G01*
X142999998Y-105400000D02*
X143900002Y-105400000D01*
G75*
G02*
X144150000Y-105649998I0J-249998D01*
G01*
X144150000Y-106175002D01*
G75*
G02*
X143900002Y-106425000I-249998J0D01*
G01*
X142999998Y-106425000D01*
G75*
G02*
X142750000Y-106175002I0J249998D01*
G01*
X142750000Y-105649998D01*
G75*
G02*
X142999998Y-105400000I249998J0D01*
G01*
G37*
%TD*%
D10*
%TO.C,Q2*%
X148950000Y-105000000D03*
X146950000Y-105950000D03*
X146950000Y-104050000D03*
%TD*%
%TO.C,Q1*%
X146950000Y-99050000D03*
X146950000Y-100950000D03*
X148950000Y-100000000D03*
%TD*%
M02*
